# xmcd CD database file
#
# Track frame offsets:
#	150
#	20393
#	41959
#	62290
#	77409
#	110446
#	141242
#	162500
#	182555
#	203816
#	222128
#	240467
#	258420
#	283078
#	304502
#
# Disc length: 4361 seconds
#
# Revision: 1
# Processed by: cddbd v1.5.2PL0 Copyright (c) Steve Scherf et al.
# Submitted via: CDex 1.51
#
DISCID=cb11070f
DTITLE=Chris Rea - Music Collection
DYEAR=2001
DGENRE=Blues Rock
TTITLE0=The Roat To Hell
TTITLE1=The Blue Cafe
TTITLE2=Josephine
TTITLE3=Out Of The Darkness
TTITLE4=Nothing To Fear
TTITLE5=On The Beach
TTITLE6=Sweet Sumer Day
TTITLE7=That' s What The Always Say
TTITLE8=Auberge
TTITLE9=Windy Town
TTITLE10=Fool
TTITLE11=Stick By You
TTITLE12=And You My Love
TTITLE13=As Long As I Have You Love
TTITLE14=Looking For The Summer
EXTD=YEAR: 2001
EXTT0=
EXTT1=
EXTT2=
EXTT3=
EXTT4=
EXTT5=
EXTT6=
EXTT7=
EXTT8=
EXTT9=
EXTT10=
EXTT11=
EXTT12=
EXTT13=
EXTT14=
PLAYORDER=
